<svg xmlns="http://www.w3.org/2000/svg" width="50" height="50" viewBox="0 0 50 50">
    <g fill="#74B3D6" fill-rule="evenodd">
        <path d="M0 25C0 11.193 11.193 0 25 0s25 11.193 25 25-11.193 25-25 25S0 38.807 0 25zm25.001-13.333c-3.62 0-4.075.016-5.498.08-1.419.065-2.388.29-3.236.62-.877.34-1.62.796-2.362 1.537a6.545 6.545 0 0 0-1.539 2.362c-.33.848-.555 1.817-.62 3.236-.063 1.422-.08 1.877-.08 5.498 0 3.621.017 4.074.081 5.497.066 1.419.29 2.388.62 3.236.34.877.796 1.62 1.537 2.362a6.529 6.529 0 0 0 2.362 1.539c.848.33 1.817.554 3.236.62 1.423.064 1.877.08 5.498.08 3.621 0 4.074-.016 5.496-.08 1.42-.066 2.39-.29 3.238-.62a6.524 6.524 0 0 0 2.36-1.54 6.545 6.545 0 0 0 1.54-2.361c.327-.848.552-1.817.619-3.236.064-1.422.08-1.876.08-5.497s-.016-4.075-.08-5.498c-.067-1.42-.292-2.388-.62-3.236a6.544 6.544 0 0 0-1.539-2.362 6.516 6.516 0 0 0-2.36-1.537c-.85-.33-1.82-.555-3.24-.62-1.422-.064-1.875-.08-5.497-.08h.004z"/>
        <path d="M23.805 14.07h1.196c3.56 0 3.982.012 5.388.076 1.3.06 2.006.277 2.476.46.622.241 1.066.53 1.532.997.467.466.755.91.998 1.533.182.47.4 1.175.459 2.475.064 1.405.078 1.828.078 5.386s-.014 3.98-.078 5.386c-.06 1.3-.277 2.006-.46 2.475a4.123 4.123 0 0 1-.997 1.532c-.467.467-.91.756-1.532.997-.47.184-1.176.4-2.476.46-1.405.064-1.828.077-5.388.077-3.56 0-3.982-.013-5.388-.077-1.3-.06-2.005-.278-2.475-.46a4.13 4.13 0 0 1-1.534-.997 4.133 4.133 0 0 1-.998-1.533c-.182-.47-.4-1.175-.459-2.475-.064-1.405-.076-1.828-.076-5.388 0-3.56.012-3.98.076-5.386.06-1.3.277-2.006.46-2.476a4.131 4.131 0 0 1 .997-1.533 4.138 4.138 0 0 1 1.534-.998c.47-.183 1.175-.4 2.475-.46 1.23-.055 1.707-.072 4.192-.075v.003zm8.314 2.213a1.6 1.6 0 1 0 0 3.201 1.6 1.6 0 0 0 0-3.201zM25 18.153a6.848 6.848 0 1 0 .001 13.695 6.848 6.848 0 0 0-.001-13.695z"/>
        <path d="M25.001 20.556a4.445 4.445 0 1 1 0 8.889 4.445 4.445 0 0 1 0-8.89z"/>
    </g>
</svg>
